<svg width="32" height="32" viewBox="0 0 32 32" fill="none" xmlns="http://www.w3.org/2000/svg">
<path d="M24.96 19.6798C25.4267 18.5464 25.68 17.3331 25.68 15.9998C25.68 15.0398 25.5333 14.1198 25.28 13.2664C24.4133 13.4664 23.5067 13.5731 22.56 13.5731C20.6213 13.5752 18.7105 13.1111 16.9887 12.2201C15.2669 11.329 13.7846 10.037 12.6667 8.4531C11.4708 11.3467 9.21482 13.6742 6.35999 14.9598C6.30666 15.2931 6.30666 15.6531 6.30666 15.9998C6.30666 17.2727 6.55738 18.5332 7.04452 19.7092C7.53165 20.8853 8.24566 21.9539 9.14577 22.854C10.9636 24.6718 13.4292 25.6931 16 25.6931C17.4 25.6931 18.7467 25.3864 19.96 24.8398C20.72 26.2931 21.0667 27.0131 21.04 27.0131C18.8533 27.7464 17.16 28.1064 16 28.1064C12.7733 28.1064 9.69332 26.8398 7.42666 24.5598C6.04799 23.1853 5.02315 21.4971 4.43999 19.6398H2.66666V13.5731H4.11999C4.56031 11.4298 5.57265 9.44565 7.04958 7.83122C8.5265 6.2168 10.4129 5.03231 12.5087 4.40344C14.6045 3.77458 16.8314 3.7248 18.9531 4.25937C21.0749 4.79395 23.0124 5.89296 24.56 7.43977C26.2403 9.11344 27.3864 11.2479 27.8533 13.5731H29.3333V19.6398H29.2533L24.5067 23.9998L17.44 23.1998V20.9731H23.88L24.96 19.6798ZM12.36 15.6931C12.76 15.6931 13.1467 15.8531 13.4267 16.1464C13.7081 16.4301 13.8659 16.8135 13.8659 17.2131C13.8659 17.6127 13.7081 17.9961 13.4267 18.2798C13.1467 18.5598 12.76 18.7198 12.36 18.7198C11.52 18.7198 10.84 18.0531 10.84 17.2131C10.84 16.3731 11.52 15.6931 12.36 15.6931ZM19.6267 15.6931C20.4667 15.6931 21.1333 16.3731 21.1333 17.2131C21.1333 18.0531 20.4667 18.7198 19.6267 18.7198C18.7867 18.7198 18.1067 18.0531 18.1067 17.2131C18.1067 16.81 18.2668 16.4234 18.5519 16.1383C18.8369 15.8532 19.2235 15.6931 19.6267 15.6931Z" fill="#261817"/>
</svg>
